<!-- Generated by IcoMoon.io -->
<svg version="1.1" xmlns="http://www.w3.org/2000/svg" width="2494" height="1024" viewBox="0 0 2494 1024">
<g id="icomoon-ignore">
</g>
<path fill="none" stroke-linejoin="round" stroke-linecap="round" stroke-miterlimit="4" stroke-width="52.5128" stroke="#000" d="M288.821 307.61l-262.564 262.564 262.564 262.564"></path>
<path fill="none" stroke-linejoin="round" stroke-linecap="round" stroke-miterlimit="4" stroke-width="52.5128" stroke="#000" d="M813.949 307.61l262.564 262.564-262.564 262.564"></path>
<path fill="#000" d="M644.198 113.681l-225.459 841.424c-3.064 11.432-14.816 18.219-26.251 15.155-11.432-3.064-18.219-14.816-15.155-26.251l225.459-841.423c3.064-11.434 14.816-18.22 26.251-15.156s18.219 14.817 15.155 26.251z"></path>
<path fill="#000" d="M602.792 102.586c3.064-11.434 14.816-18.22 26.251-15.156s18.219 14.817 15.155 26.251l-27.459 102.482-41.406-11.095 27.459-102.482z"></path>
<path fill="none" stroke-linejoin="miter" stroke-linecap="round" stroke-miterlimit="4" stroke-width="26.2564" stroke="#000" d="M674.653 165.665l82.813 22.19"></path>
<path fill="none" stroke-linejoin="miter" stroke-linecap="round" stroke-miterlimit="4" stroke-width="26.2564" stroke="#000" d="M467.616 110.191l82.815 22.19"></path>
<path fill="none" stroke-linejoin="miter" stroke-linecap="round" stroke-miterlimit="4" stroke-width="26.2564" stroke="#000" d="M515.826 13.083l42.997 73.761"></path>
<path fill="none" stroke-linejoin="miter" stroke-linecap="round" stroke-miterlimit="4" stroke-width="26.2564" stroke="#000" d="M461.758 214.87l74.117-42.38"></path>
<path fill="none" stroke-linejoin="miter" stroke-linecap="round" stroke-miterlimit="4" stroke-width="26.2564" stroke="#000" d="M663.647 206.728l43 73.761"></path>
<path fill="none" stroke-linejoin="miter" stroke-linecap="round" stroke-miterlimit="4" stroke-width="26.2564" stroke="#000" d="M686.597 121.081l74.117-42.38"></path>
<path fill="#000" d="M1444.523 377.016c-21.845 0-41.59-4.831-59.234-14.494-17.434-9.662-31.193-23.001-41.275-40.015-9.872-17.224-14.809-36.444-14.809-57.659s4.936-40.329 14.809-57.343c10.082-17.224 23.946-30.667 41.59-40.33s37.389-14.494 59.234-14.494c16.384 0 31.508 2.731 45.371 8.192s25.626 13.443 35.289 23.946l-14.809 14.809c-17.224-17.434-38.965-26.151-65.221-26.151-17.434 0-33.293 3.991-47.577 11.973s-25.521 18.905-33.713 32.768c-7.982 13.863-11.973 29.407-11.973 46.631s3.991 32.768 11.973 46.631c8.192 13.863 19.43 24.786 33.713 32.768s30.142 11.973 47.577 11.973c26.466 0 48.207-8.822 65.221-26.466l14.809 14.809c-9.662 10.503-21.53 18.59-35.604 24.261-13.863 5.461-28.987 8.192-45.371 8.192zM1630.833 376.701c-15.964 0-30.352-3.571-43.166-10.713-12.813-7.352-22.896-17.434-30.247-30.247s-11.028-27.307-11.028-43.481c0-16.174 3.676-30.667 11.028-43.48s17.434-22.791 30.247-29.932c12.813-7.142 27.202-10.713 43.166-10.713s30.352 3.571 43.166 10.713c12.813 7.142 22.791 17.119 29.932 29.932 7.352 12.813 11.028 27.306 11.028 43.48s-3.676 30.667-11.028 43.481c-7.142 12.813-17.119 22.896-29.932 30.247-12.813 7.142-27.202 10.713-43.166 10.713zM1630.833 356.851c11.763 0 22.265-2.626 31.508-7.877 9.452-5.461 16.804-13.128 22.055-23.001s7.877-21.11 7.877-33.713c0-12.603-2.626-23.841-7.877-33.713s-12.603-17.434-22.055-22.686c-9.242-5.461-19.745-8.192-31.508-8.192s-22.37 2.731-31.823 8.192c-9.242 5.251-16.594 12.813-22.055 22.686-5.251 9.872-7.877 21.11-7.877 33.713s2.626 23.841 7.877 33.713c5.461 9.872 12.813 17.539 22.055 23.001 9.452 5.251 20.060 7.877 31.823 7.877zM1911.866 141.339v233.787h-21.425v-32.768c-6.722 11.133-15.649 19.64-26.782 25.521-10.923 5.881-23.316 8.822-37.179 8.822-15.544 0-29.617-3.571-42.22-10.713s-22.475-17.119-29.617-29.932c-7.142-12.813-10.713-27.412-10.713-43.796s3.571-30.982 10.713-43.795c7.142-12.813 17.014-22.686 29.617-29.617 12.603-7.142 26.677-10.713 42.22-10.713 13.443 0 25.521 2.836 36.234 8.507 10.923 5.461 19.85 13.548 26.782 24.261v-99.564h22.37zM1828.37 356.851c11.553 0 21.95-2.626 31.193-7.877 9.452-5.461 16.804-13.128 22.055-23.001 5.461-9.872 8.192-21.11 8.192-33.713s-2.731-23.841-8.192-33.713c-5.251-9.872-12.603-17.434-22.055-22.686-9.242-5.461-19.64-8.192-31.193-8.192-11.763 0-22.37 2.731-31.823 8.192-9.242 5.251-16.594 12.813-22.055 22.686-5.251 9.872-7.877 21.11-7.877 33.713s2.626 23.841 7.877 33.713c5.461 9.872 12.813 17.539 22.055 23.001 9.452 5.251 20.060 7.877 31.823 7.877zM1974.167 209.395h22.37v165.73h-22.37v-165.73zM1985.51 173.162c-4.621 0-8.507-1.575-11.658-4.726s-4.726-6.932-4.726-11.343c0-4.201 1.575-7.877 4.726-11.028s7.037-4.726 11.658-4.726c4.621 0 8.507 1.575 11.658 4.726 3.151 2.941 4.726 6.512 4.726 10.713 0 4.621-1.575 8.507-4.726 11.658s-7.037 4.726-11.658 4.726zM2143.224 208.135c20.795 0 37.284 6.091 49.467 18.274 12.393 11.973 18.59 29.512 18.59 52.617v96.098h-22.37v-93.893c0-17.224-4.306-30.352-12.918-39.384s-20.9-13.548-36.864-13.548c-17.854 0-32.033 5.356-42.535 16.069-10.293 10.503-15.439 25.101-15.439 43.795v86.961h-22.37v-165.73h21.425v30.562c6.091-10.082 14.494-17.854 25.206-23.316 10.923-5.671 23.526-8.507 37.809-8.507zM2426.071 209.395v145.565c0 28.147-6.932 48.942-20.795 62.385-13.653 13.653-34.343 20.48-62.070 20.48-15.334 0-29.932-2.311-43.796-6.932-13.653-4.411-24.786-10.608-33.398-18.59l11.343-17.014c7.982 7.142 17.644 12.708 28.987 16.699 11.553 3.991 23.631 5.986 36.234 5.986 21.005 0 36.444-4.936 46.316-14.809 9.872-9.662 14.809-24.786 14.809-45.371v-21.11c-6.932 10.503-16.069 18.485-27.412 23.946-11.133 5.461-23.526 8.192-37.179 8.192-15.544 0-29.722-3.361-42.535-10.082-12.603-6.932-22.581-16.489-29.932-28.672-7.142-12.393-10.713-26.361-10.713-41.905s3.571-29.407 10.713-41.59c7.352-12.183 17.329-21.635 29.932-28.357s26.782-10.082 42.535-10.082c14.073 0 26.782 2.836 38.124 8.507s20.48 13.863 27.412 24.576v-31.823h21.425zM2341.316 348.974c11.973 0 22.791-2.521 32.453-7.562 9.662-5.251 17.119-12.498 22.37-21.74 5.461-9.242 8.192-19.745 8.192-31.508s-2.731-22.16-8.192-31.192c-5.251-9.242-12.708-16.384-22.37-21.425-9.452-5.251-20.27-7.877-32.453-7.877-11.973 0-22.791 2.521-32.453 7.562-9.452 5.041-16.909 12.183-22.37 21.425-5.251 9.242-7.877 19.744-7.877 31.507s2.626 22.265 7.877 31.508c5.461 9.242 12.918 16.489 22.37 21.74 9.662 5.041 20.48 7.562 32.453 7.562z"></path>
<path fill="#000" d="M2046.871 597.073c-4.408 6.462-9.332 14.207-14.769 23.232-5.435 9.027-11.23 19.128-17.384 30.308-5.23 9.334-10.411 19.283-15.539 29.846-5.025 10.463-9.846 20.871-14.462 31.232-4.613 10.256-8.869 20.154-12.768 29.691-3.896 9.437-7.281 17.797-10.153 25.077-2.872 7.181-5.128 12.976-6.769 17.384-1.641 4.309-2.463 6.514-2.463 6.617-1.024 2.563-2.87 3.847-5.537 3.847-1.334 0-2.513-0.412-3.539-1.231-1.024-0.924-1.691-2.051-1.998-3.384 0-0.102-0.515-2.258-1.539-6.462-0.924-4.309-2.206-10.001-3.847-17.077-1.641-7.179-3.539-15.384-5.692-24.615-2.051-9.334-4.256-19.025-6.617-29.076-2.255-10.153-4.563-20.412-6.921-30.77-2.36-10.358-4.566-20.204-6.617-29.538-6.871 19.385-13.795 36.565-20.769 51.539-6.871 14.872-13.95 27.845-21.231 38.923-7.281 10.975-14.822 20.204-22.615 27.693-7.693 7.488-15.796 13.538-24.308 18.154-8.41 4.513-17.282 7.743-26.616 9.691-9.229 1.951-19.025 2.925-29.384 2.925-5.335 0-11.025-0.617-17.077-1.846-6.052-1.129-12.052-2.925-18.001-5.385-5.947-2.463-11.639-5.54-17.077-9.232-5.435-3.692-10.256-8.050-14.459-13.076-4.206-5.128-7.538-10.873-10.001-17.232-2.46-6.462-3.692-13.64-3.692-21.538 0-8.308 1.743-15.898 5.23-22.77 3.487-6.974 8.205-12.923 14.155-17.846 5.947-5.025 12.818-8.922 20.614-11.692 7.898-2.767 16.205-4.154 24.923-4.154 6.359 0 12.052 0.565 17.077 1.694 5.128 1.024 9.641 2.358 13.54 3.999 3.896 1.641 7.228 3.437 9.998 5.385s5.078 3.744 6.924 5.385c1.846 1.641 3.18 3.077 3.999 4.306 0.822 1.129 1.284 1.694 1.386 1.694 0.614 1.129 0.922 2.206 0.922 3.23 0 1.436-0.565 2.77-1.691 4.001-1.027 1.231-2.41 1.846-4.154 1.846-2.053 0-3.694-0.872-4.923-2.615-0.102-0.102-0.924-1.027-2.463-2.77-1.539-1.846-4.051-3.847-7.538-6s-8-4.104-13.538-5.847c-5.438-1.743-12.104-2.615-20-2.615-7.181 0-14 1.129-20.462 3.384-6.359 2.156-11.949 5.233-16.77 9.232-4.718 3.999-8.512 8.77-11.385 14.307-2.77 5.438-4.154 11.437-4.154 18.001 0 6.462 1.077 12.359 3.23 17.692 2.156 5.333 5.025 10.103 8.617 14.307 3.589 4.206 7.743 7.845 12.461 10.923s9.641 5.643 14.769 7.693c5.128 1.948 10.256 3.437 15.384 4.461 5.23 0.924 10.153 1.386 14.769 1.386 7.796 0 15.386-0.565 22.77-1.694 7.488-1.231 14.822-3.487 22-6.769 7.281-3.282 14.41-7.796 21.383-13.538 6.976-5.745 13.898-13.231 20.771-22.462 6.871-9.232 13.64-20.359 20.307-33.385 6.769-13.026 13.538-28.409 20.307-46.154 2.053-5.333 4.051-11.078 6.002-17.229 1.948-6.155 3.946-12.359 6-18.616-1.743-9.027-3.027-16.717-3.847-23.077-0.719-6.359-1.077-11.642-1.077-15.848 0-4.511 0.357-8.1 1.077-10.768 0.717-2.668 1.641-4.666 2.767-6 1.129-1.436 2.36-2.308 3.694-2.615 1.334-0.412 2.615-0.617 3.847-0.617 1.024 0 2.153 0.205 3.384 0.617 1.331 0.41 2.513 1.331 3.537 2.767 1.129 1.334 2.053 3.335 2.77 6.002 0.717 2.665 1.077 6.254 1.077 10.768 0 4.923-0.462 10.615-1.384 17.077-0.924 6.462-2.308 13.59-4.154 21.386 1.334 6.254 2.872 13.231 4.616 20.921 1.743 7.693 3.537 15.693 5.383 24.001 1.848 8.205 3.744 16.615 5.692 25.23 1.951 8.617 3.847 17.027 5.692 25.232s3.592 16.051 5.23 23.536c1.746 7.488 3.335 14.257 4.771 20.309 2.77-6.974 6.155-15.386 10.153-25.232 4.001-9.949 8.462-20.459 13.386-31.537 4.923-11.18 10.101-22.512 15.539-33.999 5.537-11.592 11.18-22.515 16.922-32.771 8.103-14.564 15.539-27.026 22.307-37.384 6.769-10.463 12.616-19.078 17.539-25.847s8.77-11.744 11.537-14.924c2.872-3.282 4.411-5.075 4.616-5.383 1.129-1.129 2.513-1.694 4.154-1.694 1.743 0 3.13 0.617 4.154 1.846 1.129 1.129 1.694 2.463 1.694 4.001 0 0.717-0.155 1.436-0.462 2.153 0 0.102-0.614 1.641-1.846 4.616-1.129 2.872-2.615 6.871-4.461 11.999-1.743 5.025-3.694 10.975-5.847 17.846-2.153 6.769-4.256 14.102-6.307 22-2.053 7.796-3.899 16.001-5.54 24.615-1.539 8.512-2.665 17.025-3.384 25.537-0.307 3.899-0.565 8-0.769 12.309-0.205 4.206-0.307 8.462-0.307 12.768 0 6.769 0.307 13.59 0.924 20.462 0.614 6.871 1.641 13.488 3.077 19.847 1.434 6.359 3.384 12.359 5.845 17.999 2.463 5.54 5.488 10.411 9.077 14.617 3.589 4.204 7.845 7.588 12.768 10.153 5.025 2.563 10.823 3.949 17.387 4.154 1.641 0.102 2.922 0.819 3.844 2.153 1.027 1.231 1.539 2.565 1.539 4.001s-0.565 2.718-1.691 3.847c-1.129 1.126-2.463 1.691-4.001 1.691-1.641 0-3.282-0.155-4.923-0.462-7.383-1.024-13.898-3.127-19.537-6.307-5.64-3.282-10.513-7.284-14.614-11.999-4.104-4.821-7.541-10.258-10.308-16.308-2.668-6.155-4.821-12.719-6.462-19.692-1.641-6.976-2.82-14.205-3.539-21.693-0.614-7.591-0.922-15.231-0.922-22.924 0-9.127 0.459-18.256 1.384-27.383 0.922-9.129 2.153-18.001 3.692-26.616 1.539-8.717 3.335-17.127 5.385-25.23s4.154-15.641 6.307-22.617zM2223.949 752.307c-0.412 0.819-1.284 2.563-2.615 5.23-1.231 2.563-2.872 5.537-4.923 8.922-1.951 3.384-4.256 6.924-6.924 10.615s-5.643 7.076-8.925 10.153c-3.282 3.077-6.819 5.643-10.615 7.693-3.794 1.948-7.793 2.922-11.999 2.922-5.947 0-10.975-1.896-15.076-5.692-3.999-3.794-6.924-8.562-8.77-14.307-3.487 5.847-7.641 10.513-12.461 14-4.821 3.384-9.641 5.078-14.462 5.078-3.794 0-7.231-0.667-10.308-2.001-3.075-1.436-5.692-3.384-7.845-5.847-2.153-2.563-3.847-5.537-5.075-8.922-1.129-3.384-1.694-7.076-1.694-11.078 0-8 1.334-15.024 4.001-21.076 2.767-6.155 6.254-11.282 10.461-15.384 4.204-4.104 8.82-7.181 13.845-9.232 5.128-2.051 10.051-3.077 14.769-3.077 3.18 0 6.105 0.462 8.77 1.384 2.668 0.822 4.923 1.743 6.769 2.77 1.948 1.027 3.437 2.001 4.464 2.922 1.024 0.822 1.589 1.284 1.691 1.386 1.129 1.331 1.694 2.718 1.694 4.154 0 1.539-0.565 2.922-1.694 4.154-1.129 1.126-2.46 1.691-3.999 1.691-1.641 0-3.027-0.565-4.154-1.691-0.207-0.205-0.667-0.565-1.386-1.077-0.717-0.617-1.691-1.231-2.922-1.848-1.231-0.614-2.718-1.126-4.461-1.536-1.641-0.515-3.539-0.769-5.692-0.769-3.18 0-6.564 0.717-10.153 2.153-3.592 1.436-6.874 3.692-9.846 6.769-2.975 2.975-5.488 6.769-7.541 11.385-1.948 4.513-2.922 9.896-2.922 16.153 0 1.948 0.205 3.949 0.617 6 0.41 1.951 1.126 3.744 2.153 5.385 1.024 1.641 2.41 2.975 4.154 4.001 1.743 1.024 3.896 1.539 6.462 1.539 1.846 0 3.949-0.617 6.307-1.848 2.463-1.229 4.771-3.127 6.924-5.692 2.255-2.563 4.256-5.795 6-9.691 1.846-3.896 3.127-8.512 3.847-13.845 0.205-1.436 0.872-2.615 2.001-3.539 1.126-1.027 2.46-1.539 3.999-1.539 1.436 0 2.668 0.565 3.692 1.694 1.129 1.126 1.743 2.41 1.846 3.844 0.105 1.951 0.31 4.718 0.617 8.308 0.307 3.489 0.974 6.976 2.001 10.463 1.126 3.487 2.767 6.512 4.923 9.077 2.153 2.563 5.128 3.847 8.922 3.847 2.46 0 4.871-0.667 7.231-2.001 2.46-1.334 4.821-3.077 7.076-5.23 2.36-2.258 4.563-4.771 6.617-7.538 2.153-2.872 4.101-5.745 5.845-8.617 1.743-2.87 3.282-5.64 4.616-8.308 1.334-2.665 2.463-4.973 3.384-6.921 0.512-1.129 1.231-2.001 2.153-2.615 1.027-0.617 2.103-0.924 3.232-0.924 1.743 0 3.127 0.667 4.154 2.001 1.129 1.231 1.694 2.563 1.694 3.999 0 0.719-0.155 1.436-0.462 2.156zM2269.026 810.304c19.28-25.127 32.666-45.999 40.154-62.614 0.512-1.129 1.179-1.948 1.998-2.463 0.924-0.614 1.951-0.922 3.077-0.922 1.743 0 3.18 0.614 4.309 1.846 1.129 1.126 1.691 2.46 1.691 3.999 0 0.719-0.152 1.436-0.459 2.156-4.513 10.256-10.925 21.69-19.233 34.307s-18.821 26.871-31.537 42.769c0 6.462 0.050 12.923 0.152 19.385s0.155 13.538 0.155 21.231c0 7.691-0.205 15.281-0.617 22.77-0.307 7.588-0.922 14.769-1.846 21.538-0.922 6.871-2.203 13.178-3.844 18.923-1.539 5.845-3.592 10.87-6.155 15.076-2.463 4.309-5.488 7.641-9.077 10.001-3.487 2.46-7.641 3.692-12.461 3.692-6.874 0-12.154-2.615-15.848-7.845-3.692-5.233-5.537-12.669-5.537-22.31 0-5.128 0.462-10.718 1.384-16.767 1.027-5.95 2.463-12.104 4.309-18.464 1.846-6.357 4.051-12.818 6.617-19.382 2.665-6.462 5.59-12.771 8.767-18.923 3.18-6.155 6.617-12.052 10.308-17.694 3.797-5.64 7.796-10.768 12.002-15.384 0.102-7.179 0.152-14.307 0.152-21.386 0.102-7.076 0.257-13.588 0.462-19.537-3.077 3.896-6.769 6.974-11.078 9.232-4.204 2.255-8.41 3.384-12.614 3.384-3.592 0-6.874-0.667-9.846-2.001-2.872-1.436-5.335-3.384-7.386-5.847-2.051-2.563-3.642-5.537-4.768-8.922-1.129-3.384-1.694-7.076-1.694-11.078 0-8 1.334-15.024 4.001-21.076 2.767-6.155 6.254-11.282 10.461-15.384 4.204-4.104 8.82-7.181 13.845-9.232 5.128-2.051 10.051-3.077 14.769-3.077 3.18 0 6.105 0.41 8.77 1.231 2.668 0.819 4.923 1.743 6.769 2.767 1.948 1.027 3.437 2.001 4.464 2.925 1.024 0.922 1.589 1.436 1.691 1.539 1.129 1.229 1.694 2.615 1.694 4.154s-0.565 2.922-1.694 4.154c-1.129 1.126-2.46 1.691-3.999 1.691-1.436 0-2.823-0.565-4.154-1.691-0.412-0.307-0.977-0.719-1.694-1.231-0.614-0.614-1.486-1.231-2.615-1.846-1.027-0.617-2.308-1.129-3.847-1.539-1.436-0.41-3.18-0.614-5.23-0.614-3.077 0-6.462 0.717-10.153 2.153-3.694 1.334-7.129 3.487-10.308 6.462s-5.847 6.819-8 11.537c-2.153 4.616-3.23 10.206-3.23 16.77 0 4.923 1.077 8.922 3.23 11.999 2.153 2.975 5.488 4.464 10.001 4.464 2.153 0 4.408-0.617 6.769-1.848 2.46-1.229 4.821-3.127 7.076-5.692 2.255-2.563 4.206-5.795 5.847-9.691 1.743-3.896 2.972-8.512 3.692-13.845 0.205-1.436 0.872-2.615 2.001-3.539 1.126-1.027 2.46-1.539 3.999-1.539 1.743 0 3.077 0.614 3.999 1.846 1.027 1.231 1.539 2.615 1.539 4.154 0 0.102-0.050 1.694-0.152 4.771-0.102 2.972-0.205 6.974-0.307 11.999s-0.257 10.873-0.462 17.539c-0.102 6.564-0.205 13.538-0.307 20.921zM2257.334 843.997c-4.821 6.667-9.182 13.898-13.078 21.693-3.896 7.898-7.231 15.846-9.998 23.846-2.77 8-4.926 15.743-6.462 23.232-1.436 7.588-2.156 14.36-2.156 20.307 0 3.794 0.307 6.821 0.924 9.077 0.717 2.258 1.539 4.001 2.46 5.23 1.027 1.231 2.103 2.053 3.232 2.463 1.231 0.41 2.358 0.614 3.384 0.614 3.18 0 5.947-1.281 8.308-3.847 2.358-2.563 4.359-6 6-10.306 1.641-4.206 2.975-9.077 4.001-14.617 1.024-5.537 1.793-11.282 2.305-17.229 0.515-5.847 0.872-11.692 1.079-17.539 0.205-5.847 0.307-11.23 0.307-16.153 0-4.411 0-8.822 0-13.231 0-4.411-0.102-8.925-0.307-13.54zM2334.41 674.459c0 3.896-1.384 7.231-4.154 10.001-2.668 2.665-5.95 3.999-9.846 3.999s-7.231-1.334-10.001-3.999c-2.665-2.77-3.999-6.105-3.999-10.001 0-1.948 0.36-3.744 1.077-5.385 0.719-1.743 1.694-3.23 2.922-4.461 1.334-1.334 2.823-2.358 4.464-3.077 1.743-0.717 3.589-1.077 5.537-1.077s3.744 0.36 5.385 1.077c1.743 0.719 3.23 1.743 4.461 3.077 1.334 1.231 2.358 2.718 3.077 4.461 0.717 1.641 1.077 3.437 1.077 5.385zM2309.488 764.613c0-14.769 0.922-29.486 2.77-44.153 0.205-1.436 0.819-2.668 1.846-3.694 1.126-1.126 2.563-1.691 4.306-1.691 1.539 0 2.82 0.614 3.847 1.846 1.027 1.129 1.539 2.46 1.539 3.999 0 0.617-0.155 2.463-0.462 5.54-0.205 3.077-0.512 6.769-0.922 11.078-0.307 4.204-0.617 8.717-0.924 13.538-0.205 4.718-0.307 9.077-0.307 13.076 0 5.438 0.512 9.846 1.539 13.231 1.129 3.282 2.513 5.847 4.154 7.693 1.743 1.846 3.539 3.077 5.385 3.692 1.948 0.617 3.794 0.924 5.537 0.924 2.872 0 5.847-1.027 8.925-3.077 3.075-2.051 6.204-4.923 9.384-8.615 3.282-3.694 6.564-8.103 9.846-13.231 3.282-5.233 6.512-11.028 9.691-17.384 0.512-1.027 1.231-1.796 2.153-2.308 0.924-0.617 1.951-0.924 3.077-0.924 1.641 0 2.975 0.614 4.001 1.846 1.126 1.231 1.691 2.565 1.691 4.001 0 1.024-0.205 1.896-0.614 2.615-1.231 2.358-2.77 5.23-4.616 8.615s-3.949 6.871-6.307 10.461c-2.36 3.592-4.976 7.181-7.848 10.77-2.767 3.487-5.742 6.667-8.922 9.539-3.18 2.767-6.512 5.025-10.001 6.769-3.487 1.743-7.024 2.615-10.615 2.615-4.613 0-8.665-0.974-12.151-2.922-3.489-1.951-6.462-4.566-8.925-7.848-2.358-3.282-4.154-7.126-5.385-11.537-1.126-4.513-1.691-9.334-1.691-14.462zM2325.795 674.459c0-1.436-0.565-2.668-1.694-3.692-1.024-1.129-2.255-1.694-3.692-1.694s-2.668 0.565-3.692 1.694c-1.027 1.024-1.539 2.255-1.539 3.692s0.512 2.668 1.539 3.692c1.024 1.027 2.255 1.539 3.692 1.539s2.668-0.512 3.692-1.539c1.129-1.024 1.694-2.255 1.694-3.692zM2476.103 752.614c-0.617 1.126-1.694 3.18-3.232 6.152-1.434 2.975-3.434 6.359-6 10.156-2.46 3.692-5.435 7.538-8.922 11.537-3.487 4.001-7.488 7.693-12.002 11.078-4.511 3.282-9.589 6-15.229 8.153-5.54 2.156-11.59 3.232-18.154 3.232-5.847 0-11.028-1.077-15.539-3.232-4.513-2.051-8.36-4.973-11.54-8.767-3.18-3.899-5.59-8.462-7.231-13.693s-2.46-11.028-2.46-17.384c0-6.155 0.872-11.899 2.615-17.232 1.743-5.435 4.101-10.153 7.076-14.155 3.077-3.999 6.617-7.126 10.615-9.384 4.001-2.358 8.258-3.537 12.768-3.537 3.384 0 6.462 0.614 9.232 1.846 2.77 1.126 5.078 2.665 6.924 4.616 1.948 1.948 3.434 4.101 4.461 6.459 1.129 2.36 1.694 4.718 1.694 7.079 0 2.255-0.31 4.359-0.924 6.307-0.512 1.948-1.231 3.692-2.153 5.23-0.822 1.436-1.796 2.615-2.925 3.539-1.126 0.819-2.255 1.231-3.384 1.231-1.743 0-3.18-0.565-4.306-1.694-1.027-1.126-1.539-2.513-1.539-4.154 0-0.819 0.152-1.539 0.459-2.153 0.412-0.617 0.822-1.231 1.231-1.846 0.515-0.719 0.924-1.539 1.231-2.463 0.41-1.024 0.614-2.308 0.614-3.847 0-2.153-1.024-4.101-3.077-5.845-1.948-1.743-4.461-2.615-7.538-2.615-2.87 0-5.64 0.872-8.308 2.615-2.563 1.743-4.821 4.101-6.769 7.076-1.948 2.872-3.537 6.307-4.768 10.308-1.129 3.896-1.694 8.050-1.694 12.461 0 4.206 0.515 8.205 1.539 11.999 1.027 3.797 2.565 7.181 4.616 10.156 2.051 2.87 4.616 5.178 7.693 6.921 3.18 1.743 6.921 2.615 11.23 2.615 5.537 0 10.668-0.974 15.384-2.922 4.718-2.051 9.027-4.616 12.923-7.693 3.899-3.077 7.333-6.409 10.308-9.998 2.975-3.692 5.488-7.129 7.538-10.308 2.156-3.282 3.794-6.102 4.923-8.462 1.231-2.46 1.948-3.999 2.153-4.613 0.412-1.027 1.079-1.796 2.001-2.308 1.027-0.617 2.103-0.924 3.232-0.924 1.743 0 3.127 0.614 4.154 1.846 1.126 1.231 1.691 2.615 1.691 4.154 0 0.617-0.205 1.436-0.614 2.463z"></path>
</svg>
